<?xml version="1.0" encoding="UTF-8" standalone="no"?>
<svg
   viewBox="0 0 24 24"
   width="24"
   height="24"
   fill="rgba(255,255,255,1)"
   version="1.1"
   id="svg316"
   sodipodi:docname="sun-fill.svg"
   xmlns:inkscape="http://www.inkscape.org/namespaces/inkscape"
   xmlns:sodipodi="http://sodipodi.sourceforge.net/DTD/sodipodi-0.dtd"
   xmlns="http://www.w3.org/2000/svg"
   xmlns:svg="http://www.w3.org/2000/svg">
  <defs
     id="defs320" />
  <sodipodi:namedview
     id="namedview318"
     pagecolor="#505050"
     bordercolor="#ffffff"
     borderopacity="1"
     inkscape:showpageshadow="0"
     inkscape:pageopacity="0"
     inkscape:pagecheckerboard="1"
     inkscape:deskcolor="#505050"
     showgrid="false" />
  <path
     d="M 12,17.454545 C 8.9875364,17.454545 6.5454545,15.012455 6.5454545,12 6.5454545,8.9875364 8.9875364,6.5454545 12,6.5454545 c 3.012455,0 5.454545,2.4420819 5.454545,5.4545455 0,3.012455 -2.44209,5.454545 -5.454545,5.454545 z M 11.090909,2 h 1.818182 v 2.7272727 h -1.818182 z m 0,17.272727 h 1.818182 V 22 H 11.090909 Z M 4.2861091,5.5717545 5.5717545,4.2861091 7.5002273,6.2145818 6.2145818,7.5002273 Z m 12.2136179,12.2137005 1.285728,-1.285728 1.928454,1.928546 -1.285636,1.285636 z M 18.428273,4.2861091 19.713909,5.5717545 17.785455,7.5002273 16.499727,6.2145818 Z M 6.2145818,16.499727 7.5002273,17.785455 5.5717545,19.713909 4.2861091,18.428273 Z M 22,11.090909 v 1.818182 h -2.727273 v -1.818182 z m -17.2727273,0 v 1.818182 H 2 v -1.818182 z"
     id="path314"
     style="fill:#ffffff;stroke-width:0.909091" />
</svg>
