<?xml version="1.0" encoding="UTF-8" standalone="no"?>
<svg
   viewBox="0 0 24 24"
   width="24"
   height="24"
   fill="rgba(255,255,255,1)"
   version="1.1"
   id="svg12"
   sodipodi:docname="information-2-fill.svg"
   xml:space="preserve"
   xmlns:inkscape="http://www.inkscape.org/namespaces/inkscape"
   xmlns:sodipodi="http://sodipodi.sourceforge.net/DTD/sodipodi-0.dtd"
   xmlns="http://www.w3.org/2000/svg"
   xmlns:svg="http://www.w3.org/2000/svg"><defs
     id="defs16" /><sodipodi:namedview
     id="namedview14"
     pagecolor="#ffffff"
     bordercolor="#000000"
     borderopacity="0.25"
     inkscape:showpageshadow="2"
     inkscape:pageopacity="0.0"
     inkscape:pagecheckerboard="0"
     inkscape:deskcolor="#d1d1d1"
     showgrid="false" /><path
     d="M 12,22 C 6.47715,22 2,17.5228 2,12 2,6.47715 6.47715,2 12,2 17.5228,2 22,6.47715 22,12 22,17.5228 17.5228,22 12,22 Z M 12,9.5 c 0.8284,0 1.5,-0.67157 1.5,-1.5 0,-0.82843 -0.6716,-1.5 -1.5,-1.5 -0.8284,0 -1.5,0.67157 -1.5,1.5 0,0.82843 0.6716,1.5 1.5,1.5 z m 2,5.5 h -1 v -4.5 h -3 v 2 h 1 V 15 h -1 v 2 h 4 z"
     id="path10" /><path
     d="M 12,22 C 6.47715,22 2,17.5228 2,12 2,6.47715 6.47715,2 12,2 17.5228,2 22,6.47715 22,12 22,17.5228 17.5228,22 12,22 Z M 12,9.5 c 0.8284,0 1.5,-0.67157 1.5,-1.5 0,-0.82843 -0.6716,-1.5 -1.5,-1.5 -0.8284,0 -1.5,0.67157 -1.5,1.5 0,0.82843 0.6716,1.5 1.5,1.5 z m 2,5.5 h -1 v -4.5 h -3 v 2 h 1 V 15 h -1 v 2 h 4 z"
     id="path76"
     style="fill:#ffffff;stroke-width:1" /></svg>
