<?xml version="1.0" encoding="UTF-8" standalone="no"?>
<svg
   viewBox="0 0 24 24"
   width="24"
   height="24"
   fill="rgba(0,0,0,1)"
   version="1.1"
   id="svg182"
   sodipodi:docname="discord.svg"
   xmlns:inkscape="http://www.inkscape.org/namespaces/inkscape"
   xmlns:sodipodi="http://sodipodi.sourceforge.net/DTD/sodipodi-0.dtd"
   xmlns="http://www.w3.org/2000/svg"
   xmlns:svg="http://www.w3.org/2000/svg">
  <defs
     id="defs186" />
  <sodipodi:namedview
     id="namedview184"
     pagecolor="#505050"
     bordercolor="#ffffff"
     borderopacity="1"
     inkscape:showpageshadow="0"
     inkscape:pageopacity="0"
     inkscape:pagecheckerboard="1"
     inkscape:deskcolor="#505050"
     showgrid="false" />
  <path
     d="M 19.3034,5.33716 C 17.9344,4.71103 16.4805,4.2547 14.9629,4 14.7719,4.32899 14.5596,4.77471 14.411,5.12492 12.7969,4.89144 11.1944,4.89144 9.60255,5.12492 9.45397,4.77471 9.2311,4.32899 9.05068,4 7.52251,4.2547 6.06861,4.71103 4.70915,5.33716 1.96053,9.39111 1.21766,13.3495 1.5891,17.2549 3.41443,18.5815 5.17612,19.388 6.90701,19.9187 7.33151,19.3456 7.71356,18.73 8.04255,18.0827 7.41641,17.8492 6.82211,17.5627 6.24904,17.2231 6.39762,17.117 6.5462,17.0003 6.68416,16.8835 c 3.45964,1.5813 7.20694,1.5813 10.62404,0 0.1486,0.1168 0.2866,0.2335 0.4352,0.3396 -0.5731,0.3396 -1.1674,0.6261 -1.7935,0.8596 0.329,0.6473 0.711,1.2629 1.1355,1.836 1.7298,-0.5307 3.5021,-1.3372 5.3179,-2.6638 C 22.8596,12.7341 21.6806,8.80747 19.3034,5.33716 Z M 8.5201,14.8459 c -1.04003,0 -1.88903,-0.9445 -1.88903,-2.1012 0,-1.1568 0.82777,-2.1013 1.88903,-2.1013 1.05061,0 1.9102,0.9445 1.889,2.1013 0,1.1567 -0.83839,2.1012 -1.889,2.1012 z m 6.9735,0 c -1.0401,0 -1.8902,-0.9445 -1.8902,-2.1012 0,-1.1568 0.8289,-2.1013 1.8902,-2.1013 1.0506,0 1.9102,0.9445 1.8889,2.1013 0,1.1567 -0.8277,2.1012 -1.8889,2.1012 z"
     id="path180"
     style="fill:#ffffff" />
</svg>
