<?xml version="1.0" encoding="UTF-8" standalone="no"?>
<svg
   height="24.000048"
   width="24"
   viewBox="0 0 22.500064 22.500032"
   version="1.1"
   id="svg166"
   sodipodi:docname="itchio.svg"
   inkscape:export-filename="..\Program Files (x86)\Steam\steamapps\common\Godot Engine\projects\LORED 3.0.0\DrillurEssentials\Hud Icons\press\itchio.png"
   inkscape:export-xdpi="96"
   inkscape:export-ydpi="96"
   xmlns:inkscape="http://www.inkscape.org/namespaces/inkscape"
   xmlns:sodipodi="http://sodipodi.sourceforge.net/DTD/sodipodi-0.dtd"
   xmlns="http://www.w3.org/2000/svg"
   xmlns:svg="http://www.w3.org/2000/svg">
  <defs
     id="defs170" />
  <sodipodi:namedview
     id="namedview168"
     pagecolor="#505050"
     bordercolor="#ffffff"
     borderopacity="1"
     inkscape:showpageshadow="0"
     inkscape:pageopacity="0"
     inkscape:pagecheckerboard="1"
     inkscape:deskcolor="#505050"
     showgrid="false" />
  <path
     d="M 4.3195146,1.9909232 C 3.501647,2.5307424 1.8902883,4.5885113 1.8750053,5.1281607 v 0.8932715 c 0,1.1323037 0.9521284,2.1275083 1.8166089,2.1275083 1.0380187,0 1.9028814,-0.9563003 1.9029578,-2.0913222 0,1.1350219 0.8352136,2.0913222 1.8733087,2.0913222 1.0381717,0 1.8465635,-0.9563003 1.8465635,-2.0913222 0,1.1350219 0.8880938,2.0913222 1.9261888,2.0913222 h 0.0188 c 1.038171,0 1.926263,-0.9563003 1.926263,-2.0913222 0,1.1350219 0.808468,2.0913222 1.846487,2.0913222 1.038095,0 1.87331,-0.9563003 1.87331,-2.0913222 0,1.1350219 0.865015,2.0913222 1.902956,2.0913222 0.864481,0 1.816609,-0.9950347 1.816609,-2.1275083 V 5.1281607 C 20.609774,4.5884264 18.998415,2.5305726 18.1807,1.9909232 15.638686,1.8917086 13.876408,1.8745499 11.249955,1.8749746 8.6235777,1.8752295 5.0429335,1.9208443 4.3193617,1.9909232 Z M 9.3013009,7.6156615 A 2.1415247,2.3805563 0 0 1 8.9360384,8.1384919 C 8.5441831,8.564401 8.0070635,8.8284068 7.4149252,8.8284068 A 2.1764463,2.4193757 0 0 1 5.8906029,8.1381519 C 5.7486241,7.9835541 5.6407265,7.818253 5.5419221,7.6257698 l -4.585e-4,3.398e-4 C 5.4427356,7.8189325 5.3051891,7.9841487 5.1629047,8.1389166 A 2.1778218,2.4209047 0 0 1 3.6385823,8.8286627 c -0.071372,0 -0.1456466,-0.021917 -0.2057086,-0.04485 -0.083445,0.9659831 -0.1186722,1.8891553 -0.1311278,2.5622523 l -1.528e-4,0.0038 c -0.00153,0.341815 -0.00305,0.622896 -0.00458,1.013382 0.016047,2.026765 -0.1805681,6.569061 0.8038836,7.685142 1.5255451,0.395414 4.3327186,0.575496 7.1489873,0.576599 h 4.59e-4 c 2.81619,-0.0011 5.623364,-0.181185 7.148909,-0.576599 0.984451,-1.116166 0.787836,-5.658462 0.803883,-7.685225 -0.0017,-0.390403 -0.0031,-0.671484 -0.0046,-1.013384 l -2.28e-4,-0.0038 c -0.01238,-0.673266 -0.04761,-1.5963525 -0.131052,-2.5623364 -0.06006,0.022942 -0.134261,0.04485 -0.205708,0.04485 A 2.1778218,2.4209047 0 0 1 17.337225,8.1387466 C 17.194919,7.9839788 17.057373,7.8188477 16.958569,7.6259397 l -4.59e-4,-3.396e-4 c -0.09888,0.192483 -0.206702,0.3578691 -0.348681,0.5123819 a 2.1762934,2.4192058 0 0 1 -1.524246,0.6901707 c -0.592061,0 -1.129257,-0.2641763 -1.521113,-0.6900008 A 2.1415247,2.3805563 0 0 1 13.198808,7.6153217 2.1388502,2.3775832 0 0 1 12.836907,8.1381519 2.1770575,2.4200552 0 0 1 11.312433,8.8282377 c -0.02063,0 -0.04126,-0.001 -0.0619,-0.00167 h -5.35e-4 c -0.02063,6.8e-4 -0.04126,0.00167 -0.06212,0.00167 A 2.1770575,2.4200552 0 0 1 9.6634025,8.1382374 2.1390029,2.3777531 0 0 1 9.3015017,7.6154067 Z m -1.5654336,2.2501674 -1.528e-4,8.334e-4 h 0.00115 c 0.6199533,0.0015 1.1706747,0 1.8530597,0.8278657 0.5370428,-0.0626 1.0982348,-0.09386 1.6598818,-0.09293 h 4.59e-4 c 0.561649,-8.34e-4 1.122839,0.03032 1.659958,0.09293 0.682385,-0.8279499 1.233106,-0.8265066 1.85306,-0.8278657 h 0.0011 l -1.54e-4,-8.334e-4 c 0.292897,0 1.464566,0 2.280981,2.5489151 l 0.876936,3.496722 c 0.649833,2.601325 -0.208076,2.664948 -1.27819,2.667242 -1.586981,-0.06566 -2.465676,-1.346787 -2.465676,-2.627744 -0.878464,0.160035 -1.903262,0.240052 -2.928061,0.240137 h -4.58e-4 c -1.024875,0 -2.0496756,-0.0801 -2.9280637,-0.240137 0,1.280957 -0.8787702,2.562081 -2.4656763,2.627744 -1.0701128,-0.0023 -1.9279452,-0.06583 -1.2781138,-2.667242 l 0.877182,-3.496637 C 6.2714611,9.8659131 7.4431291,9.8659131 7.736027,9.8659131 Z m 3.5139357,2.0031501 v 5.1e-4 c -0.0015,0.0017 -1.670658,1.705676 -1.9707388,2.311751 l 1.0930368,-0.04868 v 1.059591 c 0,0.04961 0.438623,0.02939 0.877702,0.0068 h 4.58e-4 c 0.438927,0.02259 0.877623,0.04281 0.877623,-0.0068 V 14.13256 l 1.093039,0.04868 c -0.300159,-0.606075 -1.970738,-2.311751 -1.970738,-2.311751 v -5.1e-4 l -2.3e-4,1.7e-4 z"
     color="#000000"
     fill="#ffffff"
     id="path164"
     style="stroke-width:0.0805669" />
</svg>
