<?xml version="1.0" encoding="UTF-8" standalone="no"?>
<svg
   viewBox="0 0 24 24"
   width="24"
   height="24"
   fill="rgba(0,0,0,1)"
   version="1.1"
   id="svg182"
   sodipodi:docname="discord.svg"
   inkscape:export-filename="..\Program Files (x86)\Steam\steamapps\common\Godot Engine\projects\LORED 3.0.0\DrillurEssentials\Hud Icons\press\youtube.svg"
   inkscape:export-xdpi="96"
   inkscape:export-ydpi="96"
   xml:space="preserve"
   xmlns:inkscape="http://www.inkscape.org/namespaces/inkscape"
   xmlns:sodipodi="http://sodipodi.sourceforge.net/DTD/sodipodi-0.dtd"
   xmlns="http://www.w3.org/2000/svg"
   xmlns:svg="http://www.w3.org/2000/svg"><defs
     id="defs186" /><sodipodi:namedview
     id="namedview184"
     pagecolor="#505050"
     bordercolor="#ffffff"
     borderopacity="1"
     inkscape:showpageshadow="0"
     inkscape:pageopacity="0"
     inkscape:pagecheckerboard="1"
     inkscape:deskcolor="#505050"
     showgrid="false" /><style
     id="style3"
     type="text/css">
    .st0{fill:red}.st1{fill:#fff}.st2{fill:#282828}
  </style><path
     d="M 12.000019,22.000001 C 6.4771496,22.000001 2,17.522801 2,12.000001 2,6.47715 6.4771496,2 12.000019,2 c 5.5228,0 10,4.47715 10,10.000001 0,5.5228 -4.4772,10 -10,10 z m 6.67,-10 c -0.021,-0.575 -0.3778,-1.084 -0.9112,-1.3 -0.5333,-0.2159 -1.1437,-0.0984 -1.5588,0.3 -1.1376,-0.773301 -2.4748,-1.2005008 -3.85,-1.2300008 l 0.65,-3.1200002 2.14,0.45 c 0.0525,0.4885102 0.4522,0.8664702 0.9429,0.8917202 0.4906,0.02524 0.927,-0.30971 1.0294,-0.7902502 0.1024,-0.48053 -0.1595,-0.96428 -0.6178,-1.14128 -0.4583,-0.17701 -0.9774,0.0052 -1.2245,0.42981 l -2.45,-0.49 c -0.081,-0.01776 -0.1656,-0.0024 -0.2352,0.04272 -0.0695,0.04509 -0.118,0.11614 -0.1348,0.19728 l -0.74,3.4700002 c -1.3921,0.02099 -2.7477494,0.4484998 -3.9000194,1.2300008 -0.42126,-0.3964 -1.0368,-0.5067 -1.56948,-0.2812 -0.53268,0.2254 -0.88206,0.744 -0.89083,1.3224 -0.0088,0.5783 0.32471,1.1073 0.85031,1.3488 -0.01126,0.1465 -0.01126,0.2935 0,0.44 0,2.24 2.61,4.06 5.8300194,4.06 3.22,0 5.83,-1.82 5.83,-4.06 0.0112,-0.1465 0.0112,-0.2935 0,-0.44 0.5036,-0.2503 0.8187,-0.7677 0.81,-1.33 z m -10.0000194,1 c 0,-0.5523 0.44771,-1 1,-1 0.5523194,0 1.0000194,0.4477 1.0000194,1 0,0.5523 -0.4477,1 -1.0000194,1 -0.26522,0 -0.51957,-0.1054 -0.70711,-0.2929 -0.18754,-0.1875 -0.29289,-0.4419 -0.29289,-0.7071 z m 5.8100194,2.75 c -0.7095,0.5347 -1.5824,0.8068 -2.47,0.77 -0.8876,0.0368 -1.7605,-0.2353 -2.4700194,-0.77 -0.0881,-0.1073 -0.08041,-0.264 0.01779,-0.3622 0.09819,-0.0982 0.25486,-0.1059 0.36221,-0.0178 0.6012194,0.441 1.3351194,0.6633 2.0800194,0.63 0.7458,0.0406 1.4831,-0.1746 2.09,-0.61 0.0714,-0.0697 0.1746,-0.0959 0.2707,-0.0689 0.096,0.0271 0.1704,0.1033 0.195,0.2 0.0246,0.0967 -0.0043,0.1992 -0.0757,0.2689 z m -0.18,-1.71 c -0.5523,0 -1,-0.4477 -1,-1 0,-0.5523 0.4477,-1 1,-1 0.5523,0 1,0.4477 1,1 0.011,0.2738 -0.0909,0.5402 -0.2818,0.7367 -0.191,0.1966 -0.4542,0.3063 -0.7282,0.3033 z"
     id="path427"
     style="fill:#ffffff" /></svg>
