<?xml version="1.0" encoding="UTF-8" standalone="no"?>
<svg
   viewBox="0 0 24 24"
   width="24"
   height="24"
   fill="rgba(0,0,0,1)"
   version="1.1"
   id="svg182"
   sodipodi:docname="discord.svg"
   inkscape:export-filename="..\Program Files (x86)\Steam\steamapps\common\Godot Engine\projects\LORED 3.0.0\DrillurEssentials\Hud Icons\press\reddit.svg"
   inkscape:export-xdpi="96"
   inkscape:export-ydpi="96"
   xml:space="preserve"
   xmlns:inkscape="http://www.inkscape.org/namespaces/inkscape"
   xmlns:sodipodi="http://sodipodi.sourceforge.net/DTD/sodipodi-0.dtd"
   xmlns="http://www.w3.org/2000/svg"
   xmlns:svg="http://www.w3.org/2000/svg"><defs
     id="defs186" /><sodipodi:namedview
     id="namedview184"
     pagecolor="#505050"
     bordercolor="#ffffff"
     borderopacity="1"
     inkscape:showpageshadow="0"
     inkscape:pageopacity="0"
     inkscape:pagecheckerboard="1"
     inkscape:deskcolor="#505050"
     showgrid="false" /><style
     id="style3"
     type="text/css">
    .st0{fill:red}.st1{fill:#fff}.st2{fill:#282828}
  </style><path
     d="M 16.876076,18.247676 20.6284,22 H 2.25 V 3.6216216 h 11.531481 v 0.00843 c 0.11946,-0.00562 0.239568,-0.00843 0.360433,-0.00843 0.04908,0 0.09816,4.649e-4 0.147027,0.00141 -0.09622,0.400346 -0.147027,0.8220757 -0.147027,1.2598595 0,2.5066054 2.178054,4.6846811 5.044972,4.6846811 0.783244,0 1.534271,-0.2126162 2.196865,-0.5814379 0.211784,0.6970811 0.32573,1.4367897 0.32573,2.2030597 0,3.215352 -2.005297,5.96227 -4.833405,7.058487 z M 19.006778,7.4054054 c -1.492648,0 -2.702702,-1.2100432 -2.702702,-2.7027027 C 16.304076,3.2100432 17.51413,2 19.006778,2 c 1.492649,0 2.702703,1.2100432 2.702703,2.7027027 0,1.4926595 -1.210054,2.7027027 -2.702703,2.7027027 z"
     id="path457"
     style="fill:#ffffff;stroke-width:1.08108" /></svg>
