<?xml version="1.0" encoding="UTF-8" standalone="no"?>
<svg
   viewBox="0 0 24 24"
   width="24"
   height="24"
   fill="rgba(0,0,0,1)"
   version="1.1"
   id="svg12"
   sodipodi:docname="steam.svg"
   xmlns:inkscape="http://www.inkscape.org/namespaces/inkscape"
   xmlns:sodipodi="http://sodipodi.sourceforge.net/DTD/sodipodi-0.dtd"
   xmlns="http://www.w3.org/2000/svg"
   xmlns:svg="http://www.w3.org/2000/svg">
  <defs
     id="defs16" />
  <sodipodi:namedview
     id="namedview14"
     pagecolor="#505050"
     bordercolor="#ffffff"
     borderopacity="1"
     inkscape:showpageshadow="0"
     inkscape:pageopacity="0"
     inkscape:pagecheckerboard="1"
     inkscape:deskcolor="#505050"
     showgrid="false" />
  <path
     d="M 12.0052,2 C 6.75435,2 2.44852,6.05 2.04102,11.1975 l 5.36,2.215 c 0.45416,-0.3092 1.0025,-0.4917 1.59333,-0.4917 0.0525,0 0.10417,0.0034 0.15667,0.005 L 11.5352,9.47417 V 9.425 c 0,-2.07917 1.69,-3.77 3.77,-3.77 2.0783,0 3.77,1.6925 3.77,3.7725 0,2.08 -1.6917,3.7708 -3.77,3.7708 h -0.0875 l -3.3967,2.4259 c 0,0.0433 0.0033,0.0875 0.0033,0.1325 0,1.5625 -1.2625,2.83 -2.82495,2.83 -1.3625,0 -2.51333,-0.9775 -2.77583,-2.2725 L 2.38602,14.725 C 3.57435,18.9225 7.42768,22 12.0052,22 c 5.5225,0 9.9991,-4.4775 9.9991,-10 0,-5.5225 -4.4775,-10 -9.9991,-10 z M 7.07852,16.6667 c 0.21833,0.4525 0.595,0.8325 1.095,1.0416 1.08083,0.4492 2.32748,-0.0633 2.77668,-1.1458 0.2191,-0.525 0.22,-1.0992 0.0041,-1.6242 -0.2158,-0.525 -0.625,-0.9341 -1.14745,-1.1525 -0.52,-0.2166 -1.075,-0.2075 -1.565,-0.025 l 1.26917,0.525 c 0.79668,0.3334 1.17418,1.25 0.84078,2.0459 -0.3308,0.7975 -1.24745,1.175 -2.04495,0.8433 z M 17.8185,9.4225 c 0,-1.385 -1.1275,-2.5125 -2.5125,-2.5125 -1.3875,0 -2.5125,1.1275 -2.5125,2.5125 0,1.3875 1.125,2.5125 2.5125,2.5125 1.3858,0 2.5125,-1.125 2.5125,-2.5125 z M 15.3118,7.53 c 1.0409,0 1.8884,0.845 1.8884,1.88833 0,1.04247 -0.8475,1.88747 -1.8884,1.88747 -1.0441,0 -1.8875,-0.845 -1.8875,-1.88747 C 13.4243,8.375 14.2685,7.53 15.3118,7.53 Z"
     id="path10"
     style="fill:#ffffff" />
</svg>
