<?xml version="1.0" encoding="UTF-8" standalone="no"?>
<svg
   viewBox="0 0 24 24"
   width="24"
   height="24"
   fill="rgba(0,0,0,1)"
   version="1.1"
   id="svg182"
   sodipodi:docname="discord.svg"
   inkscape:export-filename="..\Program Files (x86)\Steam\steamapps\common\Godot Engine\projects\LORED 3.0.0\DrillurEssentials\Hud Icons\press\twitter.svg"
   inkscape:export-xdpi="96"
   inkscape:export-ydpi="96"
   xml:space="preserve"
   xmlns:inkscape="http://www.inkscape.org/namespaces/inkscape"
   xmlns:sodipodi="http://sodipodi.sourceforge.net/DTD/sodipodi-0.dtd"
   xmlns="http://www.w3.org/2000/svg"
   xmlns:svg="http://www.w3.org/2000/svg"><defs
     id="defs186" /><sodipodi:namedview
     id="namedview184"
     pagecolor="#505050"
     bordercolor="#ffffff"
     borderopacity="1"
     inkscape:showpageshadow="0"
     inkscape:pageopacity="0"
     inkscape:pagecheckerboard="1"
     inkscape:deskcolor="#505050"
     showgrid="false" /><style
     id="style3"
     type="text/css">
    .st0{fill:red}.st1{fill:#fff}.st2{fill:#282828}
  </style><path
     id="path7"
     fill="#ffffff"
     fill-opacity="1"
     d="m 11.999685,5 c 0,0 -6.259758,3.2e-5 -7.824818,0.41189 C 3.334677,5.642531 2.642531,6.3346127 2.41189,7.1912771 2.000032,8.7563372 2,12.001585 2,12.001585 c 0,0 3.2e-5,3.261722 0.41189,4.810307 0.230641,0.856665 0.906313,1.532337 1.762977,1.762977 1.581535,0.428332 7.824818,0.4283 7.824818,0.4283 0,0 6.260305,-3.2e-5 7.825365,-0.41189 0.856664,-0.23064 1.532336,-0.906312 1.762977,-1.762977 0.411858,-1.56506 0.41189,-4.810307 0.41189,-4.810307 0,0 0.01644,-3.2616578 -0.41189,-4.8267179 C 21.357386,6.3346127 20.681714,5.65894 19.82505,5.4283 18.25999,4.999968 11.999685,5 11.999685,5 Z m -1.993264,4.0034841 5.205788,2.9981009 -5.205788,2.9981 z"
     style="stroke-width:0.280063" /></svg>
