<?xml version="1.0" encoding="UTF-8" standalone="no"?>
<svg
   viewBox="0 0 24 24"
   width="24"
   height="24"
   fill="rgba(255,255,255,1)"
   version="1.1"
   id="svg12"
   sodipodi:docname="export-fill.svg"
   xmlns:inkscape="http://www.inkscape.org/namespaces/inkscape"
   xmlns:sodipodi="http://sodipodi.sourceforge.net/DTD/sodipodi-0.dtd"
   xmlns="http://www.w3.org/2000/svg"
   xmlns:svg="http://www.w3.org/2000/svg">
  <defs
     id="defs16" />
  <sodipodi:namedview
     id="namedview14"
     pagecolor="#505050"
     bordercolor="#ffffff"
     borderopacity="1"
     inkscape:showpageshadow="0"
     inkscape:pageopacity="0"
     inkscape:pagecheckerboard="1"
     inkscape:deskcolor="#505050"
     showgrid="false" />
  <path
     d="M 21,3 H 3 C 2.44772,3 2,3.44772 2,4 v 16 c 0,0.5523 0.44772,1 1,1 h 18 c 0.5523,0 1,-0.4477 1,-1 V 4 C 22,3.44772 21.5523,3 21,3 Z M 12,16 C 10.3431,16 9,14.6569 9,13 H 4 V 5 h 16 v 8 h -5 c 0,1.6569 -1.3431,3 -3,3 z m 4,-5 h -3 v 3 H 11 V 11 H 8 l 4,-4.5 z"
     id="path10"
     style="fill:#ffffff" />
</svg>
