<?xml version="1.0" encoding="UTF-8" standalone="no"?>
<svg
   viewBox="0 0 24 24"
   width="24"
   height="24"
   fill="currentColor"
   version="1.1"
   id="svg416"
   xmlns="http://www.w3.org/2000/svg"
   xmlns:svg="http://www.w3.org/2000/svg">
  <defs
     id="defs420" />
  <path
     d="M 12,22 C 6.47715,22 2,17.5228 2,12 2,6.47715 6.47715,2 12,2 17.5228,2 22,6.47715 22,12 22,17.5228 17.5228,22 12,22 Z M 10.6219,8.41459 C 10.5562,8.37078 10.479,8.34741 10.4,8.34741 c -0.2209,0 -0.4,0.17908 -0.4,0.4 v 6.50519 c 0,0.079 0.0234,0.1562 0.0672,0.2219 0.1225,0.1838 0.3709,0.2335 0.5547,0.1109 l 4.8789,-3.2526 c 0.0439,-0.0293 0.0816,-0.067 0.1109,-0.1109 0.1226,-0.1838 0.0729,-0.4322 -0.1109,-0.5547 z"
     id="path414"
     style="fill:#ffffff" />
</svg>
