<?xml version="1.0" encoding="UTF-8" standalone="no"?>
<svg
   viewBox="0 0 24 24"
   width="24"
   height="24"
   fill="rgba(0,0,0,1)"
   version="1.1"
   id="svg12"
   sodipodi:docname="question.svg"
   xmlns:inkscape="http://www.inkscape.org/namespaces/inkscape"
   xmlns:sodipodi="http://sodipodi.sourceforge.net/DTD/sodipodi-0.dtd"
   xmlns="http://www.w3.org/2000/svg"
   xmlns:svg="http://www.w3.org/2000/svg">
  <defs
     id="defs16" />
  <sodipodi:namedview
     id="namedview14"
     pagecolor="#505050"
     bordercolor="#ffffff"
     borderopacity="1"
     inkscape:showpageshadow="0"
     inkscape:pageopacity="0"
     inkscape:pagecheckerboard="1"
     inkscape:deskcolor="#505050"
     showgrid="false" />
  <path
     d="M 12,22 C 6.47715,22 2,17.5228 2,12 2,6.47715 6.47715,2 12,2 c 5.5228,0 10,4.47715 10,10 0,5.5228 -4.4772,10 -10,10 z m -1,-7 v 2 h 2 v -2 z m 2,-1.6449 C 14.4457,12.9248 15.5,11.5855 15.5,10 15.5,8.067 13.933,6.5 12,6.5 10.302,6.5 8.88637,7.70919 8.56731,9.31346 L 10.5288,9.70577 C 10.6656,9.01823 11.2723,8.5 12,8.5 c 0.8284,0 1.5,0.67157 1.5,1.5 0,0.8284 -0.6716,1.5 -1.5,1.5 -0.5523,0 -1,0.4477 -1,1 V 14 h 2 z"
     id="path10"
     style="fill:#ffffff" />
</svg>
