<?xml version="1.0" encoding="UTF-8" standalone="no"?>
<svg
   viewBox="0 0 24 24"
   width="24"
   height="24"
   fill="currentColor"
   version="1.1"
   id="svg12"
   xmlns="http://www.w3.org/2000/svg"
   xmlns:svg="http://www.w3.org/2000/svg">
  <defs
     id="defs16" />
  <path
     d="M 9.95401,2.2106 C 11.2876,1.93144 12.6807,1.92263 14.0449,2.20785 c 0.177,1.15955 0.8599,2.23107 1.9548,2.86318 1.0948,0.6321 2.3643,0.68781 3.4569,0.26127 0.9292,1.03888 1.6181,2.24973 2.0431,3.54422 -0.9145,0.73306 -1.5,1.85948 -1.5,3.12268 0,1.264 0.5862,2.391 1.5016,3.124 -0.2113,0.6404 -0.4909,1.269 -0.8414,1.876 -0.3505,0.6071 -0.755,1.1635 -1.204,1.6667 -1.0925,-0.4263 -2.3616,-0.3704 -3.4562,0.2615 -1.094,0.6316 -1.7767,1.702 -1.9544,2.8605 -1.3335,0.2791 -2.7266,0.2879 -4.09087,0.0027 C 9.77748,20.6311 9.09451,19.5595 7.99967,18.9274 6.90484,18.2953 5.63539,18.2396 4.54272,18.6662 3.61357,17.6273 2.92466,16.4164 2.49964,15.1219 3.41412,14.3889 3.99968,13.2624 3.99968,11.9992 3.99968,10.7353 3.41344,9.60827 2.49805,8.87524 2.70933,8.23482 2.98894,7.60629 3.33942,6.99923 3.68991,6.39217 4.09443,5.83576 4.54341,5.33257 5.63593,5.75881 6.90507,5.703 7.99967,5.07103 9.09364,4.43942 9.7764,3.3691 9.95401,2.2106 Z m 2.04569,12.7886 c 1.6568,0 3,-1.3431 3,-3 0,-1.6568 -1.3432,-2.99997 -3,-2.99997 -1.6569,0 -3.00003,1.34317 -3.00003,2.99997 0,1.6569 1.34313,3 3.00003,3 z"
     id="path10"
     style="fill:#ffffff" />
</svg>
