<?xml version="1.0" encoding="UTF-8" standalone="no"?>
<svg
   viewBox="0 0 24 24"
   width="24"
   height="24"
   fill="rgba(255,255,255,1)"
   version="1.1"
   id="svg12"
   sodipodi:docname="dice-line.svg"
   xmlns:inkscape="http://www.inkscape.org/namespaces/inkscape"
   xmlns:sodipodi="http://sodipodi.sourceforge.net/DTD/sodipodi-0.dtd"
   xmlns="http://www.w3.org/2000/svg"
   xmlns:svg="http://www.w3.org/2000/svg">
  <defs
     id="defs16" />
  <sodipodi:namedview
     id="namedview14"
     pagecolor="#505050"
     bordercolor="#ffffff"
     borderopacity="1"
     inkscape:showpageshadow="0"
     inkscape:pageopacity="0"
     inkscape:pagecheckerboard="1"
     inkscape:deskcolor="#505050"
     showgrid="false" />
  <path
     d="m 10.9979,1.58018 c 0.6199,-0.35886 1.3843,-0.35886 2.0042,0 l 7.5,4.34211 C 21.1197,6.27987 21.5,6.93946 21.5,7.65314 v 8.69376 c 0,0.7137 -0.3803,1.3733 -0.9979,1.7309 l -7.5,4.3421 c -0.6199,0.3589 -1.3843,0.3589 -2.0042,0 L 3.49793,18.0778 C 2.88029,17.7202 2.5,17.0606 2.5,16.3469 V 7.65314 C 2.5,6.93947 2.88029,6.27987 3.49793,5.92229 Z M 4.5,7.65314 v 0.00478 l 6.5021,3.76438 C 11.6197,11.7799 12,12.4395 12,13.1531 v 7.5359 l 7.5,-4.3421 V 7.65314 L 12,3.31104 Z M 6.13208,12.3 c -2e-5,-0.5523 -0.38776,-1.2239 -0.86604,-1.5001 -0.47828,-0.2761 -0.866,-0.0523 -0.86598,0.5 2e-5,0.5523 0.38776,1.2239 0.86604,1.5 0.47829,0.2762 0.866,0.0524 0.86598,-0.4999 z m 2.59691,6.4982 c 0.47829,0.2761 0.866,0.0523 0.86598,-0.5 -2e-5,-0.5523 -0.38776,-1.2239 -0.86604,-1.5 -0.47828,-0.2762 -0.866,-0.0523 -0.86598,0.5 2e-5,0.5522 0.38776,1.2238 0.86604,1.5 z M 5.2661,16.799 c 0.47829,0.2761 0.866,0.0523 0.86598,-0.5 -2e-5,-0.5523 -0.38776,-1.2239 -0.86604,-1.5 -0.47828,-0.2762 -0.866,-0.0523 -0.86598,0.4999 2e-5,0.5523 0.38776,1.2239 0.86604,1.5001 z m 3.46241,-1.9995 c 0.47828,0.2761 0.86599,0.0523 0.86597,-0.5 -2e-5,-0.5523 -0.38775,-1.2239 -0.86604,-1.5 -0.47828,-0.2762 -0.86599,-0.0524 -0.86598,0.4999 2e-5,0.5523 0.38776,1.2239 0.86605,1.5001 z M 14.8979,8.00001 c 0.4783,-0.27613 0.4783,-0.72382 0,-0.99995 -0.4783,-0.27612 -1.2538,-0.27612 -1.7321,0 -0.4783,0.27613 -0.4783,0.72382 0,0.99995 0.4783,0.27613 1.2538,0.27613 1.7321,0 z M 10.0981,7.00006 c 0.4783,0.27613 0.4783,0.72382 0,0.99995 -0.47828,0.27613 -1.25376,0.27613 -1.73206,0 -0.4783,-0.27613 -0.4783,-0.72382 0,-0.99995 0.4783,-0.27612 1.25378,-0.27612 1.73206,0 z m 5.8973,8.34944 c 0.5978,-0.3452 1.0825,-1.1846 1.0825,-1.875 0,-0.6903 -0.4846,-0.9701 -1.0824,-0.6249 -0.5978,0.3452 -1.0824,1.1846 -1.0825,1.875 0,0.6903 0.4846,0.9701 1.0824,0.6249 z"
     id="path10"
     style="display:inline;fill:#ffffff" />
</svg>
