<?xml version="1.0" encoding="UTF-8" standalone="no"?>
<svg
   viewBox="0 0 20 20"
   width="20"
   height="20"
   fill="rgba(255,255,255,1)"
   version="1.1"
   id="svg581"
   xml:space="preserve"
   xmlns="http://www.w3.org/2000/svg"
   xmlns:svg="http://www.w3.org/2000/svg"><defs
     id="defs585" /><path
     d="M 0,10 C 0,15.5228 4.47715,20 10,20 15.5228,20 20,15.5228 20,10 20,4.47715 15.5228,0 10,0 4.47715,0 0,4.47715 0,10 Z m 18,0 c 0,4.4183 -3.5817,8 -8,8 -4.4182804,0 -8,-3.5817 -8,-8 0,-4.41828 3.5817196,-8 8,-8 4.4183,0 8,3.58172 8,8 z m -8,0 V 4 c 3.3137,0 6,2.68629 6,6 z"
     id="path718"
     style="fill:#ffffff;stroke-width:1" /></svg>
