<?xml version="1.0" encoding="UTF-8" standalone="no"?>
<svg
   viewBox="0 0 20 20"
   width="20"
   height="20"
   fill="rgba(255,255,255,1)"
   version="1.1"
   id="svg581"
   xml:space="preserve"
   xmlns="http://www.w3.org/2000/svg"
   xmlns:svg="http://www.w3.org/2000/svg"><defs
     id="defs585" /><path
     d="M 0,10.000001 C 0,15.522801 4.47715,20 10,20 15.5228,20 20,15.522801 20,10.000001 20,4.4771505 15.5228,0 10,0 4.47715,0 0,4.4771505 0,10.000001 Z m 18,0 C 18,14.4183 14.4183,18 10,18 5.58172,18 2,14.4183 2,10.000001 2,5.5817205 5.58172,2 10,2 c 4.4183,0 8,3.5817205 8,8.000001 z M 10,16 c 3.3137,0 6,-2.6863 6,-5.999999 0,-3.3137105 -2.6863,-6.0000005 -6,-6.0000005 -3.3137098,0 -6,2.68629 -6,6.0000005 C 4,13.3137 6.6862902,16 10,16 Z"
     id="path933"
     style="fill:#ffffff" /></svg>
