<?xml version="1.0" encoding="UTF-8" standalone="no"?>
<svg
   viewBox="0 0 20 20"
   width="20"
   height="20"
   fill="rgba(255,255,255,1)"
   version="1.1"
   id="svg581"
   xml:space="preserve"
   xmlns="http://www.w3.org/2000/svg"
   xmlns:svg="http://www.w3.org/2000/svg"><defs
     id="defs585" /><path
     d="M 0,10 C 0,15.5228 4.47715,20 10,20 15.5228,20 20,15.5228 20,10 20,4.47715 15.5228,0 10,0 4.47715,0 0,4.47715 0,10 Z m 18,0 c 0,4.4183 -3.5817,8 -8,8 -4.41828,0 -8,-3.5817 -8,-8 0,-4.41828 3.58172,-8 8,-8 4.4183,0 8,3.58172 8,8 z m -2,0 c 0,3.3137 -2.6863,6 -6,6 C 8.3431,16 6.84311,15.3284 5.75732,14.2426 L 10,10 V 4 c 3.3137,0 6,2.68629 6,6 z"
     id="path823"
     style="fill:#ffffff" /></svg>
